<svg width="256" height="256" xmlns="http://www.w3.org/2000/svg">
  <g stroke="null">
   <path stroke="null" d="m207.32832,139.95481c-3.73612,-2.74052 -5.96836,-7.14212 -5.96836,-11.77951s2.23224,-9.039 5.96312,-11.77427l17.26055,-12.65459c2.751,-2.02264 3.88808,-5.5806 2.81388,-8.82416c-4.44352,-13.35151 -11.47035,-25.52927 -20.89187,-36.20314c-2.26892,-2.55712 -5.92644,-3.36408 -9.05472,-1.9912l-19.43515,8.54644c-4.23392,1.86544 -9.16476,1.5982 -13.18383,-0.72312c-4.01384,-2.31608 -6.7072,-6.4452 -7.21548,-11.05116l-2.33704,-21.33727c-0.37204,-3.39552 -2.89772,-6.16224 -6.24084,-6.84868c-13.60827,-2.78244 -27.90823,-2.8296 -41.75754,-0.0524c-3.36408,0.67596 -5.895,3.44268 -6.26704,6.85392l-2.31608,21.20103c-0.50828,4.6112 -3.20164,8.74032 -7.22596,11.0564c-4.01384,2.31608 -8.92896,2.5938 -13.17859,0.72312l-19.53995,-8.5936c-3.10208,-1.37288 -6.77008,-0.5764 -9.039,1.97548c-9.45296,10.63196 -16.51123,22.79399 -21.00191,36.13502c-1.08992,3.23832 0.04192,6.81724 2.8034,8.84512l17.15051,12.57599c3.74136,2.74576 5.9736,7.14736 5.9736,11.78475s-2.23224,9.039 -5.96312,11.77427l-17.26055,12.65459c-2.751,2.02264 -3.88808,5.5806 -2.81388,8.82416c4.44352,13.35151 11.47035,25.52927 20.89187,36.20314c2.26892,2.56236 5.93692,3.37456 9.05472,1.9912l19.43515,-8.54644c4.23392,-1.86544 9.15952,-1.5982 13.18383,0.72312c4.01384,2.31608 6.7072,6.4452 7.21548,11.05116l2.33704,21.33727c0.37204,3.39552 2.89772,6.16224 6.24084,6.84868c6.88536,1.40432 13.95935,2.11696 21.03859,2.11696c6.90632,0 13.87551,-0.69692 20.71371,-2.0698c3.36408,-0.67596 5.895,-3.44268 6.26704,-6.85392l2.32132,-21.20103c0.50828,-4.6112 3.20164,-8.74032 7.22596,-11.0564c4.01384,-2.31084 8.9342,-2.58332 13.17859,-0.72312l19.53995,8.5936c3.11256,1.37812 6.77008,0.58164 9.039,-1.97548c9.45296,-10.63196 16.51123,-22.79399 21.00191,-36.13502c1.08992,-3.23832 -0.04192,-6.81724 -2.8034,-8.84512l-17.15575,-12.57599zm-79.32832,24.72231c-20.25783,0 -36.67998,-16.42215 -36.67998,-36.67998s16.42215,-36.67998 36.67998,-36.67998s36.67998,16.42215 36.67998,36.67998s-16.42215,36.67998 -36.67998,36.67998z"/>
  </g>
</svg>