<svg width="256" height="256" xmlns="http://www.w3.org/2000/svg">
 <g>
  <title>Layer 1</title>
  <g stroke="null" id="svg_4">
   <path stroke="null" id="svg_1" d="m228,200.22221c0,15.34444 -12.43333,27.77778 -27.77778,27.77778l-144.44444,0c-15.33889,0 -27.77778,-12.43333 -27.77778,-27.77778l0,-144.44444c0,-15.34444 12.43889,-27.77778 27.77778,-27.77778l144.44444,0c15.34444,0 27.77778,12.43333 27.77778,27.77778l0,144.44444z" fill="#00c853"/>
   <path stroke="null" id="svg_2" d="m55.77778,50.22222l72.22222,0l0,155.55555l-72.22222,0l0,-155.55555z" fill="#fff"/>
   <path stroke="null" id="svg_3" d="m166.88889,50.22222a38.88889,38.88889 0 1 0 0,77.77777a38.88889,38.88889 0 1 0 0,-77.77777zm0,77.77777a38.88889,38.88889 0 1 0 0,77.77777a38.88889,38.88889 0 1 0 0,-77.77777z" fill="#fff"/>
  </g>
 </g>

</svg>