<svg width="256" height="256" xmlns="http://www.w3.org/2000/svg">
  <g stroke="null">
   <path stroke="null" d="m127.99996,23.6469c-8.22772,0 -16.16085,1.04056 -23.73423,2.80245a7.82727,7.82727 0 0 0 -6.00234,6.77685l-1.66109,15.14341c-0.54326,4.96241 -3.40979,9.35301 -7.73476,11.85185c-4.31636,2.49378 -9.55551,2.77005 -14.12435,0.76428l-0.01017,0l-13.91037,-6.12464a7.82727,7.82727 0 0 0 -8.86594,1.81397c-10.81354,11.52846 -19.11279,25.48814 -23.8259,41.06863a7.82727,7.82727 0 0 0 2.86355,8.58059l12.34101,9.0494c4.02986,2.96279 6.39977,7.63197 6.39977,12.62631c0,4.997 -2.36986,9.67009 -6.39977,12.62631l-12.34101,9.03917a7.82727,7.82727 0 0 0 -2.86355,8.58064c4.71259,15.57882 13.00527,29.54878 23.8259,41.07881a7.82727,7.82727 0 0 0 8.86594,1.8038l13.91037,-6.12464c4.57103,-2.01031 9.81519,-1.72104 14.13452,0.77446c4.32497,2.49884 7.19149,6.88944 7.73476,11.85185l1.66109,15.14341a7.82727,7.82727 0 0 0 5.99216,6.76667c7.57682,1.76826 15.51668,2.81263 23.7444,2.81263c8.22772,0 16.16085,-1.04056 23.73423,-2.80245a7.82727,7.82727 0 0 0 6.00234,-6.77685l1.66109,-15.14341c0.54326,-4.96241 3.40979,-9.35301 7.73476,-11.85185c4.31636,-2.49378 9.55551,-2.78023 14.12435,-0.77446l13.92055,6.12464a7.82727,7.82727 0 0 0 8.86594,-1.8038c10.81354,-11.52846 19.11279,-25.49837 23.82595,-41.07881a7.82727,7.82727 0 0 0 -2.86361,-8.58064l-12.34101,-9.03917c-4.02991,-2.95622 -6.39977,-7.62931 -6.39977,-12.62631c0,-4.997 2.36986,-9.67009 6.39977,-12.62631l12.34101,-9.03917a7.82727,7.82727 0 0 0 2.86361,-8.58059c-4.71316,-15.58049 -13.01241,-29.5504 -23.82595,-41.07886a7.82727,7.82727 0 0 0 -8.86594,-1.80374l-13.92055,6.12459c-4.56884,2.00577 -9.80799,1.71932 -14.12435,-0.77446c-4.32497,-2.49884 -7.19149,-6.88944 -7.73476,-11.85185l-1.66109,-15.14341a7.82727,7.82727 0 0 0 -5.99216,-6.76667c-7.57682,-1.76826 -15.51668,-2.81263 -23.7444,-2.81263zm0,15.65297c5.08356,0 9.9653,0.91246 14.85811,1.77317l0.97831,8.99842c1.08465,9.90791 6.84426,18.72037 15.46951,23.70365c8.63089,4.98657 19.13883,5.55988 28.25892,1.54902l8.27484,-3.63811c6.35427,7.63014 11.38508,16.24856 14.89886,25.69085l-7.33733,5.38071c-8.03326,5.89292 -12.78936,15.27521 -12.78936,25.24244c0,9.96723 4.7561,19.34952 12.78936,25.24244l7.33733,5.38071c-3.51378,9.44229 -8.54459,18.0607 -14.89886,25.69085l-8.27484,-3.63811c-9.1201,-4.01086 -19.62804,-3.43755 -28.25892,1.54902c-8.62525,4.98328 -14.38487,13.79574 -15.46951,23.70365l-0.97831,8.99842c-4.89239,0.8583 -9.77705,1.77317 -14.85811,1.77317c-5.08356,0 -9.9653,-0.91246 -14.85811,-1.77317l-0.97831,-8.99842c-1.08465,-9.90791 -6.84426,-18.72037 -15.46951,-23.70365c-8.63089,-4.98657 -19.13883,-5.55988 -28.25892,-1.54902l-8.27484,3.63811c-6.35547,-7.62905 -11.3855,-16.24783 -14.89886,-25.69085l7.33733,-5.38071c8.03326,-5.89292 12.78936,-15.27521 12.78936,-25.24244c0,-9.96723 -4.75996,-19.35562 -12.78936,-25.25262l-7.33733,-5.38071c3.5154,-9.44594 8.55106,-18.05867 14.90903,-25.69085l8.26466,3.63806c9.1201,4.01092 19.62804,3.44777 28.25892,-1.53879c8.62525,-4.98328 14.38487,-13.79574 15.46951,-23.70365l0.97831,-8.99842c4.89239,-0.8583 9.77705,-1.77317 14.85811,-1.77317zm0,46.9589c-22.96034,0 -41.74124,18.7809 -41.74124,41.74124c0,22.96034 18.7809,41.74124 41.74124,41.74124c22.96034,0 41.74124,-18.7809 41.74124,-41.74124c0,-22.96034 -18.7809,-41.74124 -41.74124,-41.74124zm0,15.65297c14.50085,0 26.08828,11.58742 26.08828,26.08828c0,14.50085 -11.58742,26.08828 -26.08828,26.08828c-14.50085,0 -26.08828,-11.58742 -26.08828,-26.08828c0,-14.50085 11.58742,-26.08828 26.08828,-26.08828z"/>
  </g>
</svg>