<svg width="48" height="48" xmlns="http://www.w3.org/2000/svg">
 <defs>
  <linearGradient y2="0.49092" y1="0.95201" x2="0.50909" x1="0.04809" id="_rnrzRmyCORmBgGe4G1aPa">
   <stop stop-color="#3079d6" offset="0"/>
   <stop stop-color="#297cd2" offset="1"/>
  </linearGradient>
  <linearGradient gradientTransform="matrix(0.6880006498133255,0,0,0.5357029861512217,14.302956697247623,19.767658753645037)" gradientUnits="userSpaceOnUse" y2="17.921" y1="7.494" x2="35.612" x1="35.612" id="svg_5">
   <stop stop-color="#dedede" offset="0"/>
   <stop stop-color="#d6d6d6" offset="1"/>
  </linearGradient>
 </defs>
 <g>
  <title>Layer 1</title>
  <path id="svg_1" d="m39,16l0,25c0,1.105 -0.895,2 -2,2l-26,0c-1.105,0 -2,-0.895 -2,-2l0,-34c0,-1.105 0.895,-2 2,-2l17,0l11,11z" fill="#50e6ff"/>
  <path id="svg_2" d="m28,5l0,9c0,1.105 0.895,2 2,2l9,0l-11,-11z" fill="url(#_rnrzRmyCORmBgGe4G1aPa)"/>
  <path id="svg_3" d="m25.391,31l-3.083,0l-0.893,-2.794l-4.466,0l-0.884,2.794l-3.065,0l4.571,-12.558l3.354,0l4.466,12.558zm-4.623,-4.965l-1.349,-4.221c-0.099,-0.315 -0.169,-0.692 -0.21,-1.13l-0.07,0c-0.029,0.368 -0.102,0.733 -0.219,1.095l-1.366,4.256l3.214,0z" fill="#e52030"/>
  <g stroke="null">
   <path stroke="null" d="m43.61491,20.66281l-2.38215,-2.3815c-0.36212,-0.36277 -0.95195,-0.36277 -1.31472,0l-1.12093,1.12224l3.69556,3.69556l1.12224,-1.12093c0.36277,-0.36342 0.36277,-0.95129 0,-1.31537" fill="#c94f60"/>
   <path stroke="null" d="m20.33628,37.86373l-1.24295,4.93916l4.93981,-1.2436l0.51806,-4.28474l-4.21492,0.58918z" fill="#f0f0f0"/>
   <path stroke="null" d="m39.34062,26.25117l-15.30682,15.30747l-3.69621,-3.69621l15.30682,-15.30747l3.69621,3.69621z" fill="#edbe00"/>
   <path stroke="null" d="m35.6418,22.55561l3.15271,-3.15401l3.69817,3.69556l-3.15271,3.15401l-3.69817,-3.69556z" fill="url(#svg_5)"/>
   <path stroke="null" d="m19.72296,40.30526l-0.62963,2.49763l2.49698,-0.62963l-1.86735,-1.86801z" fill="#787878"/>
  </g>
  <path id="svg_4" d="m35,26.753l-3.372,0l0,3.372l-1.768,0l0,-3.372l-3.389,0l0,-1.778l3.389,0l0,-3.389l1.769,0l0,3.389l3.371,0l0,1.778z" fill="#e52030"/>
 </g>
</svg>