<svg width="256" height="256" xmlns="http://www.w3.org/2000/svg" xml:space="preserve" version="1.1">
 <g>
  <title>Layer 1</title>
  <path stroke="null" fill="url(#svg_3)" d="m236.12611,128c0,59.71264 -48.41346,108.1261 -108.1261,108.1261s-108.1261,-48.41346 -108.1261,-108.1261s48.41346,-108.1261 108.1261,-108.1261s108.1261,48.41346 108.1261,108.1261z"/>
  <path stroke="null" opacity="0.05" d="m116.96573,192.2161l21.62522,0c2.98428,0 5.40631,-2.42202 5.40631,-5.40631l0,-81.09458c0,-2.98428 -2.42202,-5.40631 -5.40631,-5.40631l-21.62522,0c-2.98428,0 -5.40631,2.42202 -5.40631,5.40631l0,81.09458c0,2.98428 2.42202,5.40631 5.40631,5.40631z"/>
  <path stroke="null" opacity="0.07" d="m118.19297,189.51294l19.17616,0c2.16793,0 3.93038,-1.75705 3.93038,-3.93038l0,-78.64011c0,-2.16793 -1.75705,-3.93038 -3.93038,-3.93038l-19.17616,0c-2.16793,0 -3.93038,1.75705 -3.93038,3.93038l0,78.64552c0,2.16793 1.75705,3.92498 3.93038,3.92498z"/>
  <ellipse stroke="null" fill="url(#svg_2)" opacity="0.15" ry="19.51136" rx="21.56034" cy="80.85702" cx="127.77835"/>
  <path stroke="null" fill="#FFFFFF" d="m127.77835,93.45371c9.19072,0 14.32671,-5.77393 14.32671,-12.91026c0,-7.13632 -5.42252,-12.67238 -14.32671,-12.67238s-14.32671,5.53606 -14.32671,12.67238c0,7.13632 5.13599,12.91026 14.32671,12.91026z"/>
  <rect stroke="null" fill="#FFFFFF" height="81.09458" width="21.62522" y="105.71521" x="116.96573"/>
 </g>
 <defs>
  <linearGradient gradientTransform="matrix(5.406305313110352,0,0,5.406305313110352,-1.9729783535003662,-2.410888433456421)" y2="38.264" x2="38.1826" y1="9.9803" x1="9.8988" gradientUnits="userSpaceOnUse" id="svg_3">
   <stop stop-color="#33BEF0" offset="0"/>
   <stop stop-color="#0A85D9" offset="1"/>
  </linearGradient>
  <radialGradient gradientUnits="userSpaceOnUse" gradientTransform="matrix(4.2212419509887695,0,0,3.8200948238372803,26.467992782592773,19.734413146972656)" r="5.1077" cy="16" cx="24" id="svg_2">
   <stop stop-color="#000000" offset="0.5158"/>
   <stop stop-opacity="0" stop-color="#000000" offset="1"/>
  </radialGradient>
 </defs>
</svg>