<?xml version="1.0" encoding="iso-8859-1"?>
<!-- Generator: Adobe Illustrator 24.1.0, SVG Export Plug-In . SVG Version: 6.00 Build 0)  -->
<svg version="1.1" id="Layer_1" xmlns="http://www.w3.org/2000/svg" xmlns:xlink="http://www.w3.org/1999/xlink" x="0px" y="0px"
	 viewBox="0 0 48 48" style="enable-background:new 0 0 48 48;" xml:space="preserve">
<linearGradient id="SVGID_1_" gradientUnits="userSpaceOnUse" x1="9.8988" y1="9.9803" x2="38.1826" y2="38.264">
	<stop  offset="0" style="stop-color:#33BEF0"/>
	<stop  offset="1" style="stop-color:#0A85D9"/>
</linearGradient>
<path style="fill:url(#SVGID_1_);" d="M44.041,24.122c0,11.045-8.955,20-20,20s-20-8.955-20-20s8.955-20,20-20
	S44.041,13.077,44.041,24.122z"/>
<path style="opacity:0.05;" d="M22,36h4c0.552,0,1-0.448,1-1V20c0-0.552-0.448-1-1-1h-4c-0.552,0-1,0.448-1,1v15
	C21,35.552,21.448,36,22,36z"/>
<path style="opacity:0.07;" d="M22.227,35.5h3.547c0.401,0,0.727-0.325,0.727-0.727V20.227c0-0.401-0.325-0.727-0.727-0.727h-3.547
	c-0.401,0-0.727,0.325-0.727,0.727v14.547C21.5,35.175,21.825,35.5,22.227,35.5z"/>
<radialGradient id="SVGID_2_" cx="24" cy="16" r="5.1077" gradientTransform="matrix(0.7808 0 0 0.7066 5.2607 4.0962)" gradientUnits="userSpaceOnUse">
	<stop  offset="0.5158" style="stop-color:#000000"/>
	<stop  offset="1" style="stop-color:#000000;stop-opacity:0"/>
</radialGradient>
<ellipse style="opacity:0.15;fill:url(#SVGID_2_);" cx="24" cy="15.402" rx="3.988" ry="3.609"/>
<path style="fill:#FFFFFF;" d="M24,17.732c1.7,0,2.65-1.068,2.65-2.388C26.65,14.024,25.647,13,24,13s-2.65,1.024-2.65,2.344
	C21.35,16.664,22.3,17.732,24,17.732z"/>
<rect x="22" y="20" style="fill:#FFFFFF;" width="4" height="15"/>
</svg>