<svg width="256" height="256" xmlns="http://www.w3.org/2000/svg">
  <g stroke="null">
   <circle stroke="null" fill="url(#svg_3)" r="60.37494" cy="128.525" cx="128"/>
   <circle stroke="null" fill="url(#svg_2)" r="36.74995" cy="128.525" cx="128"/>
   <path stroke="null" d="m229.84992,103.32502c-12.59999,0 -24.67498,-6.82499 -31.49998,-18.37499c-6.3,-11.02499 -6.3,-24.14998 -1.05,-35.17497c-11.02499,-9.97499 -24.14998,-17.32499 -38.84997,-22.04998c-6.3,10.49999 -17.84999,16.79999 -30.44998,16.79999s-24.14998,-6.3 -30.44998,-16.27499c-14.69999,4.2 -27.82498,12.07499 -38.84997,22.04998c5.25,10.49999 5.775,24.14998 -1.05,35.17497c-6.82499,11.54999 -18.89999,18.37499 -31.49998,18.37499c-2.1,7.87499 -3.15,16.27499 -3.15,24.67498c0,6.82499 0.525,13.12499 2.1,19.94998c13.12499,-0.525 25.72498,6.3 32.54997,18.37499c7.34999,12.59999 6.3,27.29998 -1.05,38.32497c11.02499,9.97499 24.14998,18.37499 38.32497,23.09998c5.775,-12.59999 18.37499,-20.99998 33.07497,-20.99998s27.29998,8.39999 33.07497,20.99998c14.69999,-4.725 27.82498,-12.59999 38.32497,-23.09998c-7.34999,-11.02499 -8.39999,-26.24998 -1.05,-38.32497c6.82499,-12.07499 19.42498,-18.37499 32.54997,-18.37499c1.575,-6.82499 2.1,-13.12499 2.1,-19.94998c0,-8.39999 -1.05,-16.79999 -3.15,-25.19998zm-101.84992,80.32494c-30.44998,0 -55.12496,-24.67498 -55.12496,-55.12496c0,-30.44998 24.67498,-55.12496 55.12496,-55.12496s55.12496,24.67498 55.12496,55.12496c0,30.44998 -24.67498,55.12496 -55.12496,55.12496z" fill="url(#svg_1)"/>
  </g>
 <defs>
  <linearGradient gradientTransform="matrix(5.249995231628418,0,0,5.249995231628418,2.0000996589660645,2.5251009464263916)" gradientUnits="userSpaceOnUse" y2="15.881" y1="32.012" x2="15.881" x1="32.012" id="svg_3">
   <stop stop-color="#ffffff" offset="0"/>
   <stop stop-color="#f2f2f2" offset="0.242"/>
   <stop stop-color="#cccccc" offset="1"/>
  </linearGradient>
  <linearGradient gradientTransform="matrix(5.249995231628418,0,0,5.249995231628418,2.0000996589660645,2.5251009464263916)" gradientUnits="userSpaceOnUse" y2="28.94" y1="17.45" x2="28.94" x1="17.45" id="svg_2">
   <stop stop-color="#0d61a9" offset="0"/>
   <stop stop-color="#0e5fa4" offset="0.363"/>
   <stop stop-color="#135796" offset="0.78"/>
   <stop stop-color="#16528c" offset="1"/>
  </linearGradient>
  <linearGradient gradientTransform="matrix(5.249995231628418,0,0,5.249995231628418,2.0000996589660645,2.5251009464263916)" gradientUnits="userSpaceOnUse" y2="38.099" y1="5.344" x2="38.082" x1="5.326" id="svg_1">
   <stop stop-color="#889097" offset="0"/>
   <stop stop-color="#848c94" offset="0.331"/>
   <stop stop-color="#78828b" offset="0.669"/>
   <stop stop-color="#64717c" offset="1"/>
  </linearGradient>
 </defs>
</svg>